<svg width="139" height="28" viewBox="0 0 139 28" fill="none" xmlns="http://www.w3.org/2000/svg">
<path d="M45.8755 6.96214V9.84711H40.6603V12.1403H44.507V14.8958H40.6603V20H37.0356V6.96214H45.8755ZM57.3145 14.6924C57.3145 14.976 57.296 15.2595 57.2591 15.5431H50.398C50.435 16.1102 50.5891 16.5356 50.8603 16.8191C51.1439 17.0904 51.5014 17.226 51.9329 17.226C52.5371 17.226 52.9686 16.9547 53.2275 16.4123H57.0926C56.9323 17.1274 56.618 17.7685 56.1495 18.3356C55.6933 18.8904 55.1138 19.3281 54.4111 19.6486C53.7083 19.9692 52.9316 20.1295 52.0809 20.1295C51.0576 20.1295 50.1453 19.9137 49.3439 19.4822C48.5548 19.0507 47.9322 18.4342 47.476 17.6328C47.0322 16.8315 46.8103 15.8883 46.8103 14.8033C46.8103 13.7184 47.0322 12.7814 47.476 11.9923C47.9199 11.191 48.5363 10.5745 49.3254 10.143C50.1268 9.71149 51.0453 9.49574 52.0809 9.49574C53.1042 9.49574 54.0104 9.70533 54.7994 10.1245C55.5885 10.5437 56.2049 11.1478 56.6488 11.9369C57.0926 12.7136 57.3145 13.6321 57.3145 14.6924ZM53.6159 13.7862C53.6159 13.3424 53.4679 12.9972 53.172 12.7506C52.8761 12.4917 52.5062 12.3622 52.0624 12.3622C51.6186 12.3622 51.2549 12.4855 50.9713 12.7321C50.6877 12.9663 50.5028 13.3177 50.4165 13.7862H53.6159ZM58.2061 14.8033C58.2061 13.7307 58.3972 12.7937 58.7794 11.9923C59.1739 11.191 59.7041 10.5745 60.3699 10.143C61.0479 9.71149 61.8 9.49574 62.626 9.49574C63.3411 9.49574 63.9576 9.63752 64.4754 9.92108C64.9932 10.2047 65.3939 10.5868 65.6775 11.0677V9.62519H69.3022V20H65.6775V18.5575C65.3939 19.0383 64.987 19.4205 64.4569 19.7041C63.9391 19.9877 63.3288 20.1295 62.626 20.1295C61.8 20.1295 61.0479 19.9137 60.3699 19.4822C59.7041 19.0507 59.1739 18.4342 58.7794 17.6328C58.3972 16.8191 58.2061 15.876 58.2061 14.8033ZM65.6775 14.8033C65.6775 14.1376 65.4925 13.6136 65.1227 13.2314C64.7651 12.8492 64.3213 12.6581 63.7911 12.6581C63.2487 12.6581 62.7987 12.8492 62.4411 13.2314C62.0836 13.6013 61.9048 14.1253 61.9048 14.8033C61.9048 15.4691 62.0836 15.9993 62.4411 16.3938C62.7987 16.776 63.2487 16.9671 63.7911 16.9671C64.3213 16.9671 64.7651 16.776 65.1227 16.3938C65.4925 16.0116 65.6775 15.4814 65.6775 14.8033ZM75.7876 20.1295C74.8506 20.1295 74.0122 19.9753 73.2725 19.6671C72.5451 19.3466 71.9656 18.9151 71.5341 18.3726C71.1149 17.8178 70.8807 17.1952 70.8313 16.5047H74.3451C74.3944 16.8376 74.5485 17.0965 74.8074 17.2815C75.0663 17.4664 75.3869 17.5589 75.7691 17.5589C76.065 17.5589 76.2992 17.4972 76.4718 17.3739C76.6444 17.2506 76.7307 17.0904 76.7307 16.8931C76.7307 16.6342 76.589 16.4431 76.3054 16.3198C76.0218 16.1965 75.5533 16.0609 74.8999 15.913C74.1602 15.765 73.5437 15.5986 73.0506 15.4136C72.5574 15.2287 72.1259 14.9266 71.756 14.5075C71.3985 14.0883 71.2197 13.5211 71.2197 12.8061C71.2197 12.1896 71.3861 11.6348 71.719 11.1417C72.0519 10.6362 72.5389 10.2355 73.18 9.93958C73.8334 9.64368 74.6163 9.49574 75.5287 9.49574C76.8849 9.49574 77.9513 9.82862 78.728 10.4944C79.5048 11.1601 79.9548 12.0355 80.0781 13.1204H76.8047C76.7431 12.7876 76.5951 12.5348 76.3609 12.3622C76.139 12.1773 75.8369 12.0848 75.4547 12.0848C75.1588 12.0848 74.9307 12.1403 74.7704 12.2513C74.6225 12.3622 74.5485 12.5163 74.5485 12.7136C74.5485 12.9602 74.6903 13.1513 74.9739 13.2869C75.2574 13.4102 75.7136 13.5396 76.3424 13.6752C77.0945 13.8355 77.7171 14.0143 78.2102 14.2116C78.7157 14.4088 79.1534 14.7294 79.5233 15.1732C79.9055 15.6047 80.0966 16.1965 80.0966 16.9486C80.0966 17.5527 79.9178 18.0952 79.5602 18.576C79.215 19.0568 78.7157 19.439 78.0623 19.7226C77.4212 19.9938 76.6629 20.1295 75.7876 20.1295ZM83.7094 8.66353C83.0683 8.66353 82.5505 8.49093 82.156 8.14572C81.7738 7.78818 81.5827 7.34433 81.5827 6.81419C81.5827 6.27172 81.7738 5.82171 82.156 5.46417C82.5505 5.10663 83.0683 4.92786 83.7094 4.92786C84.3382 4.92786 84.8437 5.10663 85.2259 5.46417C85.6204 5.82171 85.8177 6.27172 85.8177 6.81419C85.8177 7.34433 85.6204 7.78818 85.2259 8.14572C84.8437 8.49093 84.3382 8.66353 83.7094 8.66353ZM85.5033 9.62519V20H81.8786V9.62519H85.5033ZM91.1922 11.0677C91.4757 10.5745 91.8764 10.1923 92.3942 9.92108C92.9121 9.63752 93.5223 9.49574 94.2251 9.49574C95.0511 9.49574 95.797 9.71149 96.4628 10.143C97.1409 10.5745 97.671 11.191 98.0532 11.9923C98.4478 12.7937 98.645 13.7307 98.645 14.8033C98.645 15.876 98.4478 16.8191 98.0532 17.6328C97.671 18.4342 97.1409 19.0507 96.4628 19.4822C95.797 19.9137 95.0511 20.1295 94.2251 20.1295C93.5223 20.1295 92.9121 19.9938 92.3942 19.7226C91.8764 19.439 91.4757 19.0507 91.1922 18.5575V20H87.5675V6.31487H91.1922V11.0677ZM94.9648 14.8033C94.9648 14.1253 94.7799 13.6013 94.41 13.2314C94.0525 12.8492 93.6086 12.6581 93.0785 12.6581C92.5484 12.6581 92.0984 12.8492 91.7285 13.2314C91.3709 13.6136 91.1922 14.1376 91.1922 14.8033C91.1922 15.4814 91.3709 16.0116 91.7285 16.3938C92.0984 16.776 92.5484 16.9671 93.0785 16.9671C93.6086 16.9671 94.0525 16.776 94.41 16.3938C94.7799 15.9993 94.9648 15.4691 94.9648 14.8033ZM101.968 8.66353C101.327 8.66353 100.809 8.49093 100.415 8.14572C100.032 7.78818 99.8413 7.34433 99.8413 6.81419C99.8413 6.27172 100.032 5.82171 100.415 5.46417C100.809 5.10663 101.327 4.92786 101.968 4.92786C102.597 4.92786 103.102 5.10663 103.485 5.46417C103.879 5.82171 104.076 6.27172 104.076 6.81419C104.076 7.34433 103.879 7.78818 103.485 8.14572C103.102 8.49093 102.597 8.66353 101.968 8.66353ZM103.762 9.62519V20H100.137V9.62519H103.762ZM109.451 6.31487V20H105.826V6.31487H109.451ZM113.346 8.66353C112.705 8.66353 112.187 8.49093 111.792 8.14572C111.41 7.78818 111.219 7.34433 111.219 6.81419C111.219 6.27172 111.41 5.82171 111.792 5.46417C112.187 5.10663 112.705 4.92786 113.346 4.92786C113.975 4.92786 114.48 5.10663 114.862 5.46417C115.257 5.82171 115.454 6.27172 115.454 6.81419C115.454 7.34433 115.257 7.78818 114.862 8.14572C114.48 8.49093 113.975 8.66353 113.346 8.66353ZM115.14 9.62519V20H111.515V9.62519H115.14ZM123.325 16.9116V20H121.753C119.103 20 117.777 18.687 117.777 16.0609V12.6396H116.501V9.62519H117.777V7.11008H121.42V9.62519H123.307V12.6396H121.42V16.1164C121.42 16.3999 121.482 16.6034 121.605 16.7267C121.741 16.85 121.963 16.9116 122.271 16.9116H123.325ZM136.158 9.62519L129.574 24.9377H125.635L128.113 19.5562L123.86 9.62519H127.891L130.073 15.5061L132.182 9.62519H136.158Z" fill="white"/>
<ellipse cx="11.1731" cy="13.6671" rx="11.1731" ry="10.585" fill="url(#paint0_radial_471_743)"/>
<circle cx="17.9358" cy="21.0179" r="4.41044" fill="url(#paint1_radial_471_743)"/>
<defs>
<radialGradient id="paint0_radial_471_743" cx="0" cy="0" r="1" gradientUnits="userSpaceOnUse" gradientTransform="translate(-2.14176e-07 6.46925) rotate(57.8586) scale(21.0016 21.5253)">
<stop stop-color="#897FFF"/>
<stop offset="1" stop-color="#5243FF"/>
</radialGradient>
<radialGradient id="paint1_radial_471_743" cx="0" cy="0" r="1" gradientUnits="userSpaceOnUse" gradientTransform="translate(13.5254 16.6074) rotate(63.4349) scale(9.86204)">
<stop offset="0.221875" stop-color="#EF0606"/>
<stop offset="1" stop-color="#B00101"/>
</radialGradient>
</defs>
</svg>
